<svg width="20" height="20" viewBox="0 0 20 20" fill="none" xmlns="http://www.w3.org/2000/svg">
<g id="Arrow">
<path id="Arrow 1" d="M5.93403 13.0052C5.64113 13.2981 5.64113 13.773 5.93403 14.0659C6.22692 14.3587 6.70179 14.3587 6.99469 14.0659L5.93403 13.0052ZM14.2854 6.46446C14.2854 6.05024 13.9496 5.71445 13.5354 5.71446L6.78542 5.71445C6.37121 5.71445 6.03542 6.05024 6.03542 6.46445C6.03542 6.87867 6.37121 7.21445 6.78542 7.21445H12.7854V13.2145C12.7854 13.6287 13.1212 13.9645 13.5354 13.9645C13.9496 13.9645 14.2854 13.6287 14.2854 13.2145L14.2854 6.46446ZM6.99469 14.0659L14.0658 6.99478L13.0051 5.93412L5.93403 13.0052L6.99469 14.0659Z" fill="#5D37F3"/>
</g>
</svg>
